<svg width="27" height="32" viewBox="0 0 27 32" fill="none" xmlns="http://www.w3.org/2000/svg">
<path d="M20.3037 23.3813L21.0763 22.8267C22.0493 22.2578 22.7361 21.9733 23.1367 21.9733C24.0238 21.9733 24.9825 22.7698 26.0127 24.3627C26.6423 25.3582 26.9571 26.1547 26.9571 26.752C26.9571 27.3493 26.7568 27.8471 26.3561 28.2453C25.9841 28.6436 25.5405 28.9991 25.0254 29.312C24.5103 29.6249 24.0095 29.9236 23.5231 30.208C23.0652 30.4924 22.1065 30.8622 20.6471 31.3173C19.1876 31.7724 17.7711 32 16.3975 32C15.0525 32 13.6789 31.8293 12.2766 31.488C10.903 31.1182 9.47218 30.5209 7.9841 29.696C6.52464 28.8427 5.20827 27.8187 4.03498 26.624C2.86169 25.4009 1.88871 23.8507 1.11606 21.9733C0.372019 20.0676 0 18.0053 0 15.7867C0 13.568 0.372019 11.5627 1.11606 9.77067C1.8601 7.95022 2.80445 6.45689 3.94913 5.29066C5.12242 4.096 6.4531 3.10044 7.94118 2.304C10.7456 0.767999 13.5644 0 16.3975 0C17.7424 0 19.1017 0.213333 20.4754 0.639999C21.8776 1.03822 22.9364 1.45067 23.6518 1.87733L24.682 2.47467C25.1971 2.78756 25.5978 3.04356 25.8839 3.24267C26.628 3.84 27 4.52267 27 5.29066C27 6.03022 26.6995 6.81244 26.0986 7.63733C24.9825 9.17333 23.9809 9.94133 23.0938 9.94133C22.5787 9.94133 21.849 9.62844 20.9046 9.00267C19.7027 8.03555 18.1002 7.552 16.097 7.552C14.2369 7.552 12.4054 8.192 10.6025 9.472C9.74404 10.0978 9.02862 10.9796 8.45628 12.1173C7.88394 13.2551 7.59777 14.5493 7.59777 16C7.59777 17.4222 7.88394 18.7022 8.45628 19.84C9.02862 20.9778 9.75835 21.8738 10.6455 22.528C12.3911 23.7796 14.2083 24.4053 16.097 24.4053C16.9841 24.4053 17.814 24.2916 18.5866 24.064C19.3879 23.8364 19.9603 23.6089 20.3037 23.3813Z" fill="#48A6A7"/>
<path d="M20.25 16C20.25 18.5247 18.2353 20.5714 15.75 20.5714C13.2647 20.5714 11.25 18.5247 11.25 16C11.25 13.4753 13.2647 11.4286 15.75 11.4286C18.2353 11.4286 20.25 13.4753 20.25 16Z" fill="#48A6A7"/>
</svg>
